PathFileType	4	(X/Y/Z)	D:\TRACE\spotREDO_2-26-24\spot_justArm_Motion_2_1-v60.trc
DataRate	CameraRate	NumFrames	NumMarkers	Units	OrigDataRate	OrigDataStartFrame	OrigNumFrames
100.00	100.00	      28	9	mm	100.00	5251	      7000
Frame#	Time	front left toe			Front right toe			aft left toe			aft right toe			Arm			FL body			FR body			AL Body			AR Body			
		X1	Y1	Z1	X2	Y2	Z2	X3	Y3	Z3	X4	Y4	Z4	X5	Y5	Z5	X6	Y6	Z6	X7	Y7	Z7	X8	Y8	Z8	X9	Y9	Z9	

5251	52.500	-171.78502	41.56419	-175.70502	253.70763	31.09363	-102.97684	-279.82202	-15.13809	440.61008	148.78937	-16.28069	451.64780	-10.36241	763.51361	-801.12549	15.15903	568.10510	-209.70430	168.64291	572.70563	-184.18857	-136.58354	509.40704	658.89685	10.45407	509.33844	685.42688	
5252	52.510	-172.39653	41.31221	-175.72841	252.68718	30.77561	-103.48446	-280.86310	-14.75817	440.48770	146.85866	-15.99944	451.67767	-9.96744	765.18335	-800.70715	14.49808	569.77417	-209.34505	168.59627	574.24194	-183.81992	-137.31653	508.44092	658.91229	10.81570	507.96863	685.38623	
5253	52.520	-173.13237	41.31260	-175.98346	251.78653	30.95414	-103.34062	-281.95508	-14.37123	440.39838	146.59935	-15.59937	451.63425	-9.82741	765.95563	-800.34497	14.30862	571.19501	-209.02916	168.67490	575.40668	-183.43683	-138.22432	507.84061	658.81610	10.31382	506.83658	685.48883	
5254	52.530	-174.06038	41.58125	-176.38416	250.92607	30.32445	-103.60076	-282.71164	-14.22924	440.30624	145.97922	-15.12968	451.70984	-8.88050	765.90723	-799.48444	15.21470	572.26196	-209.17189	168.66785	576.54181	-182.90984	-138.98256	507.05133	658.73840	7.63312	506.73938	685.40302	
5255	52.540	-174.68626	41.52458	-176.39676	250.30882	30.28432	-103.61537	-283.44751	-14.01340	440.33035	144.77344	-15.08237	451.62820	-9.61120	765.37982	-799.65173	14.23133	573.33075	-208.67789	168.74779	577.45740	-182.60838	-139.74240	506.77493	658.60474	6.04783	506.62250	685.32697	
5256	52.550	-175.40201	41.30962	-176.65556	249.31113	29.97774	-104.12680	-284.51617	-13.49394	440.42059	143.85062	-14.61825	451.57309	-9.52460	764.08710	-799.48596	14.02724	574.41907	-208.60640	168.17535	578.31873	-182.56067	-140.86334	507.14191	658.40350	5.73346	506.39191	685.31732	
5257	52.560	-176.27058	40.88765	-176.75107	248.37433	29.80902	-104.21252	-285.35629	-12.89116	440.08786	143.29106	-14.15882	451.58847	-9.89893	762.67059	-799.63446	13.59085	574.99622	-208.53876	167.86971	578.95093	-182.57622	-141.01886	507.15753	658.47601	5.69960	506.35321	685.34674	
5258	52.570	-177.46657	40.74369	-177.22491	247.77779	29.84338	-104.33323	-286.46356	-12.20829	439.78183	141.96307	-13.78523	451.53067	-10.41492	760.72272	-799.70056	13.24948	575.51898	-208.41246	167.60872	579.32037	-182.52718	-141.65990	507.48428	658.38385	5.18662	506.69357	685.36725	
5259	52.580	-178.38779	40.76428	-177.44463	246.56606	29.30097	-104.60516	-287.30878	-11.79468	439.77881	140.99980	-13.39119	451.25809	-11.21764	758.50635	-799.87244	12.82531	575.83807	-208.37260	167.33197	579.45410	-182.46869	-142.10896	508.11725	658.48883	4.34484	507.17877	685.29730	
5260	52.590	-179.23570	40.54966	-177.61377	245.28752	29.05369	-104.77422	-288.22452	-11.24213	439.83249	140.21768	-12.72450	451.32373	-12.17998	756.27515	-800.06128	13.49511	575.80035	-208.71785	166.79906	579.51398	-182.50404	-142.87967	508.61893	658.46442	4.22877	507.50305	685.57452	
5261	52.600	-180.27135	39.88790	-177.77768	244.83865	29.10021	-104.84134	-288.96222	-10.91000	439.85327	139.23634	-12.40280	451.08731	-11.05010	753.68909	-798.53491	11.43869	576.20050	-208.69794	166.00929	579.61731	-182.65688	-143.20306	509.03690	658.49536	3.14398	508.08167	685.28467	
5262	52.610	-181.33551	39.54531	-178.05823	243.42017	28.62959	-105.26088	-289.94098	-10.18998	439.35614	138.31750	-11.98062	451.02988	-13.57554	751.58496	-800.68280	11.86057	575.98169	-209.21774	165.27217	579.70532	-182.80699	-143.44305	509.66534	658.71844	2.91088	508.45935	685.19092	
5263	52.620	-182.40276	39.50107	-178.21330	242.70100	28.62674	-105.44236	-290.94730	-9.65071	439.13562	137.01666	-11.70111	450.72635	-14.73340	749.18115	-801.06189	11.28047	576.01105	-209.29590	164.52052	579.55103	-183.08774	-144.04483	510.11334	658.49762	2.58169	508.90994	685.07739	
5264	52.630	-183.35469	39.06680	-178.25975	241.68292	28.35887	-105.57133	-292.13608	-9.01518	439.08813	136.21124	-11.07126	450.77277	-15.60489	746.99542	-801.26001	10.38692	575.59448	-209.41913	163.55301	579.41095	-183.31331	-144.42534	510.44644	658.48407	0.82846	509.51205	684.94684	
5265	52.640	-184.36142	38.70115	-178.47993	240.22363	27.90104	-106.03267	-293.09238	-8.41152	439.09149	135.42474	-10.27426	450.57581	-16.43437	744.98407	-801.32080	9.31467	575.39325	-209.62914	162.69035	579.09979	-183.62968	-145.48416	511.02432	658.20111	0.56029	509.92484	684.86682	
5266	52.650	-185.82501	38.34745	-178.97795	239.43692	27.78020	-106.05488	-293.73904	-8.05939	439.09482	134.16971	-10.07696	450.32394	-17.75991	743.27521	-802.00269	8.11734	575.16217	-209.83611	161.61575	578.60883	-183.86583	-145.73407	511.50705	658.26959	0.19795	510.45096	684.68060	
5267	52.660	-186.69635	38.16163	-179.12488	238.38713	27.41569	-106.45949	-295.22330	-6.97566	438.98080	133.10121	-9.37202	450.37354	-18.43947	741.58624	-802.29980	7.19091	574.57440	-209.79619	160.77289	578.26642	-184.15352	-146.35208	511.93781	658.13409	-0.13027	510.89111	684.51843	
5268	52.670	-187.72014	37.96521	-179.21800	237.21234	27.17648	-106.77593	-296.11963	-6.56965	438.64459	132.17381	-8.90621	450.10001	-19.26393	740.46259	-802.73969	6.09849	574.27100	-209.97630	159.36749	578.00934	-184.48566	-147.21587	512.33984	658.01813	-0.62086	511.33298	684.46222	
5269	52.680	-188.81717	37.31447	-179.48120	236.30168	27.22323	-106.80412	-297.17697	-5.98986	438.64316	131.23062	-7.94278	449.88712	-19.89867	739.43677	-803.05658	5.02866	573.88086	-210.41866	158.58743	577.57971	-184.65472	-147.71585	512.62946	657.91412	-1.21612	511.72061	684.34454	
5270	52.690	-189.96219	37.13151	-179.88353	235.76123	27.19570	-107.19173	-298.05298	-5.42656	438.51843	130.01315	-7.80836	449.69397	-20.96005	738.78717	-803.44220	3.82219	573.59149	-210.48236	157.30095	577.33356	-184.91916	-148.35066	513.03784	657.91168	-1.63278	511.98700	684.30170	
5271	52.700	-191.01584	36.77395	-179.95103	234.00642	26.80725	-107.29551	-299.24033	-4.88542	438.51816	128.89603	-6.98717	449.44360	-21.64619	738.34625	-803.92157	2.58684	573.24542	-210.65744	156.14095	577.07990	-185.12939	-149.28247	513.13409	657.90973	-2.64180	512.43567	684.13318	
5272	52.710	-192.12602	36.24883	-179.96237	233.78218	26.91469	-107.53362	-300.51981	-4.12978	438.34827	128.12776	-6.54741	449.45789	-22.03942	738.14612	-804.05103	1.67392	572.91180	-210.68040	155.02914	576.73920	-185.30052	-150.44827	513.48981	657.78546	-3.54276	512.72192	683.98029	
5273	52.720	-193.27063	36.02633	-180.43224	231.66241	26.37033	-108.00932	-301.42087	-3.46474	438.11526	126.49155	-5.87102	448.98340	-22.64667	737.84387	-804.25452	0.34686	572.73315	-210.95961	153.78871	576.56476	-185.51306	-150.86043	513.69653	657.86652	-4.27376	512.83105	683.89343	
5274	52.730	-194.61668	35.71006	-180.80283	230.96503	26.40178	-108.12375	-302.75305	-2.74779	438.13171	125.51535	-5.28316	448.94257	-21.27386	737.62134	-802.57269	-0.91499	572.56860	-211.09207	152.61325	576.37543	-185.57881	-152.04225	514.23212	657.85760	-5.11319	513.00500	683.77478	
5275	52.740	-195.65707	35.57671	-180.83749	229.63194	26.09726	-108.40430	-303.64215	-2.12541	437.84039	124.52859	-4.34633	448.98383	-23.71240	737.97382	-804.68652	-3.13127	572.46057	-210.90840	151.47983	576.14130	-185.80229	-153.16206	514.42133	657.61682	-6.40454	513.47998	683.67853	
5276	52.750	-196.65939	34.84490	-181.17279	228.33104	25.76679	-108.68230	-304.86606	-1.46925	437.49490	123.47218	-3.60348	448.72662	-24.25378	738.16827	-804.74609	-4.25939	572.24207	-211.10699	150.17934	575.92474	-186.05496	-154.32089	514.76825	657.57941	-7.67477	513.87000	683.63263	
5277	52.760	-197.95721	34.68599	-181.71385	227.28806	25.98234	-108.64105	-306.11981	-0.75268	437.30298	122.23147	-2.97019	448.43353	-24.71613	738.44763	-805.05420	-4.25638	571.85852	-211.33415	149.15204	575.78949	-185.99510	-155.53972	514.98004	657.49597	-8.45608	513.96051	683.58221	
5278	52.770	-198.96208	34.49374	-181.91119	226.62970	25.74774	-108.76010	-307.03217	-0.31434	437.27643	121.04520	-2.30745	448.36874	-25.00058	738.67383	-805.30957	-6.36799	571.65527	-211.35164	148.09669	575.50922	-186.23915	-156.78378	515.24170	657.43652	-9.80872	514.30121	683.47937	
